<svg width="15" height="15" viewBox="0 0 15 15" fill="none" xmlns="http://www.w3.org/2000/svg">
<g clip-path="url(#clip0_1_27)">
<path d="M7.5 0C8.98336 0 10.4334 0.439867 11.6668 1.26398C12.9001 2.08809 13.8614 3.25943 14.4291 4.62987C14.9968 6.00032 15.1453 7.50832 14.8559 8.96318C14.5665 10.418 13.8522 11.7544 12.8033 12.8033C11.7544 13.8522 10.418 14.5665 8.96317 14.8559C7.50832 15.1453 6.00032 14.9968 4.62987 14.4291C3.25943 13.8614 2.08809 12.9001 1.26398 11.6668C0.439864 10.4334 -2.86102e-06 8.98336 -2.86102e-06 7.5C0.00216866 5.51154 0.793042 3.60515 2.19909 2.1991C3.60515 0.793045 5.51154 0.00217131 7.5 0ZM7.5 14.2969C8.84429 14.2969 10.1584 13.8982 11.2761 13.1514C12.3939 12.4045 13.2651 11.343 13.7795 10.1011C14.2939 8.85908 14.4285 7.49246 14.1663 6.174C13.904 4.85553 13.2567 3.64444 12.3061 2.69388C11.3556 1.74332 10.1445 1.09598 8.826 0.833725C7.50754 0.571466 6.14091 0.706067 4.89895 1.22051C3.65698 1.73495 2.59545 2.60612 1.8486 3.72386C1.10175 4.8416 0.703122 6.1557 0.703122 7.5C0.705294 9.30198 1.42209 11.0295 2.69628 12.3037C3.97047 13.5779 5.69802 14.2947 7.5 14.2969Z" fill="black"/>
<path d="M4.20466 4.19414C4.27058 4.1283 4.35994 4.09132 4.4531 4.09132C4.54627 4.09132 4.63562 4.1283 4.70154 4.19414L7.49998 7.00195L10.2972 4.18945C10.3633 4.12341 10.4529 4.0863 10.5463 4.0863C10.6397 4.0863 10.7292 4.12341 10.7953 4.18945C10.8613 4.2555 10.8984 4.34507 10.8984 4.43848C10.8984 4.53188 10.8613 4.62145 10.7953 4.6875L7.99685 7.5L10.7953 10.3125C10.8612 10.3785 10.8981 10.4681 10.898 10.5614C10.8979 10.6546 10.8607 10.7441 10.7947 10.81C10.7287 10.8758 10.6391 10.9128 10.5459 10.9127C10.4526 10.9126 10.3631 10.8754 10.2972 10.8094L7.49998 7.99805L4.70154 10.8105C4.63549 10.8766 4.54592 10.9137 4.45252 10.9137C4.35911 10.9137 4.26954 10.8766 4.20349 10.8105C4.13745 10.7445 4.10034 10.6549 4.10034 10.5615C4.10034 10.4681 4.13745 10.3785 4.20349 10.3125L7.0031 7.5L4.20349 4.6875C4.13888 4.62158 4.10279 4.53289 4.10301 4.44058C4.10322 4.34827 4.13974 4.25976 4.20466 4.19414Z" fill="black"/>
</g>
<defs>
<clipPath id="clip0_1_27">
<rect width="15" height="15" fill="white" transform="matrix(-1 0 0 1 15 0)"/>
</clipPath>
</defs>
</svg>
